<svg width="268" height="65" viewBox="0 0 268 65" fill="none" xmlns="http://www.w3.org/2000/svg">
<path fill-rule="evenodd" clip-rule="evenodd" d="M37.5433 5.6422C37.8164 3.20276 36.0869 0.99998 33.6475 0.726908C31.208 0.435631 29.0052 2.18329 28.7322 4.62273C28.4045 7.40806 28.8596 10.7395 29.4422 14.162C31.0624 14.6536 32.628 15.3636 34.0844 16.201C35.65 12.5054 37.1792 8.84624 37.5433 5.6422ZM54.674 16.3466C53.7091 14.0892 51.0876 13.0697 48.8302 14.0346C45.8629 15.3271 42.7863 17.8576 39.6914 20.4609C40.8566 21.6078 41.9488 22.5008 42.8773 24.3021C46.3908 23.8652 49.7587 23.3372 52.362 22.2085C54.6194 21.2073 55.657 18.5858 54.674 16.3466ZM47.1918 4.44068C45.2257 2.9843 42.4404 3.38481 40.984 5.35092C38.763 8.33651 37.2702 12.7967 35.65 17.1476C36.1961 17.5117 36.7059 17.8758 37.1974 18.2581C37.5615 18.5494 37.9438 18.8589 38.3261 19.1683C42.0399 16.3648 45.8993 13.6341 48.1203 10.6485C49.5766 8.6824 49.1579 5.89707 47.1918 4.44068Z" fill="white"/>
<path d="M38.7449 40.0856C37.3795 41.5602 35.9231 42.9256 34.3757 44.2545C32.2093 46.1296 30.0066 47.9501 27.7674 49.6978C25.3643 48.2232 23.6349 47.4768 23.3436 47.8591C23.0887 48.205 24.09 49.4793 25.8923 51.1359C19.8483 55.6325 13.4584 59.6012 6.59521 62.8598C5.52113 63.3696 4.39243 63.7337 3.28194 64.1342C2.99066 64.2434 2.68118 64.2434 2.55375 64.2616C0.80609 64.4618 0.278152 63.9885 0.350971 62.3865C0.569428 57.3984 2.11683 52.7198 3.71886 48.0593C4.15577 46.785 4.61089 45.5107 5.08421 44.2363C7.50545 45.7109 9.2349 46.4755 9.52618 46.0932C9.83566 45.6745 8.37928 43.9997 5.93984 41.9061C7.6875 37.3913 9.63541 32.9494 11.9292 28.6895C16.5168 32.0938 20.5947 34.3329 21.0498 33.714C21.5049 33.095 18.137 29.7999 13.4948 26.3592L13.2946 26.2136C14.0956 24.8482 14.933 23.4829 15.825 22.1539C16.9355 20.4791 18.3009 18.9499 19.648 17.4571C21.4503 15.4728 23.7805 14.7992 26.3838 15.3818C34.7216 17.2386 40.5107 22.0265 43.2414 30.2369C43.7876 31.9117 43.2961 33.5501 42.4404 35.0611C41.8579 36.0806 41.2207 37.0455 40.5107 37.9557C36.1052 34.7334 32.2822 32.6581 31.8452 33.2407C31.4265 33.8232 34.4667 36.827 38.7449 40.0856Z" fill="white"/>
<path d="M92.4489 10.4026C86.678 10.4026 82.9278 12.7146 80.6522 17.1019H80.5248V14.3712C80.5248 12.4051 78.9228 10.8213 76.9567 10.8213C74.9906 10.8213 73.4067 12.4051 73.4067 14.3712V44.573C73.4067 46.5391 74.9906 48.1411 76.9567 48.1411H77.3026C79.2687 48.1411 80.8707 46.5391 80.8707 44.573V26.5866C80.8707 20.7065 84.2386 16.7925 89.8639 16.7925C95.3253 16.7925 97.9468 19.9601 97.9468 25.6218V44.573C97.9468 46.5391 99.5306 48.1411 101.497 48.1411H101.843C103.809 48.1411 105.393 46.5391 105.393 44.573V24.22C105.393 15.6274 100.696 10.4026 92.4489 10.4026Z" fill="white"/>
<path d="M128.422 10.3297C117.99 10.3297 111.182 17.9393 111.182 29.6086C111.182 41.296 117.917 48.578 128.731 48.578C135.43 48.578 140.965 45.6106 143.459 40.9866C144.387 39.2935 143.113 37.2 141.183 37.2H139.29C138.343 37.2 137.524 37.7461 137.032 38.5653C135.594 41.0412 132.572 42.534 128.877 42.534C122.76 42.534 118.7 38.2741 118.7 31.8114V31.3744H142.548C143.968 31.3744 145.134 30.2093 145.134 28.7894V28.753C145.134 17.4478 138.671 10.3297 128.422 10.3297ZM118.737 26.0768C119.155 20.3423 123.033 16.4101 128.403 16.4101C133.828 16.4101 137.506 20.2695 137.67 26.0768H118.737Z" fill="white"/>
<path d="M179.85 35.5979H177.866C176.792 35.5979 175.863 36.2715 175.463 37.2728C174.17 40.5679 171.221 42.3337 167.034 42.3337C161.045 42.3337 157.003 37.5094 157.003 29.4811C157.003 21.6349 160.99 16.6286 166.998 16.6286C171.33 16.6286 174.225 18.7767 175.408 21.8351C175.809 22.8546 176.737 23.5646 177.848 23.5646H179.832C181.561 23.5646 182.854 21.8715 182.29 20.2331C180.378 14.6078 174.917 10.3297 166.925 10.3297C156.384 10.3297 149.43 17.8665 149.43 29.4811C149.43 41.296 156.402 48.578 166.998 48.578C174.589 48.578 180.232 44.8642 182.308 38.984C182.89 37.3274 181.616 35.5979 179.85 35.5979Z" fill="white"/>
<path d="M202.206 42.2791C202.078 42.2609 201.932 42.2427 201.805 42.2427C199.347 41.9514 198.2 40.4222 198.2 37.5459V16.7014H202.406C204.044 16.7014 205.355 15.3724 205.355 13.7522C205.355 12.132 204.044 10.8212 202.406 10.8212H198.2V6.14261C198.2 5.12314 197.782 4.1947 197.108 3.52112C196.435 2.84754 195.524 2.42883 194.487 2.42883C192.448 2.42883 190.791 4.10367 190.791 6.14261V10.8212H188.57C186.95 10.8212 185.621 12.132 185.621 13.7522C185.621 15.3724 186.95 16.7014 188.57 16.7014H190.791V38.3105C190.791 45.5196 193.667 48.3777 201.131 48.3777C201.15 48.3777 201.168 48.3777 201.168 48.3777C202.023 48.3777 202.806 48.1228 203.462 47.6677C203.48 47.6677 203.498 47.6495 203.498 47.6495C204.263 47.1034 204.772 46.2113 204.772 45.2101C204.772 43.7173 203.662 42.4611 202.206 42.2791Z" fill="white"/>
<path d="M226.418 10.3297C220.592 10.3297 215.786 12.6963 213.329 16.3555C212.928 16.9745 212.728 17.648 212.728 18.3034C212.728 20.1239 214.184 21.8169 216.241 21.8169C217.443 21.8169 218.59 21.1798 219.154 20.1239C220.356 17.8665 222.923 16.4829 226.218 16.4829C231.206 16.4829 234.046 18.8313 234.046 23.0913V23.5464C234.046 24.9117 232.99 26.0404 231.624 26.1133L223.978 26.5502C214.767 27.1327 209.724 30.9193 209.724 37.4548C209.724 44.1178 214.876 48.5051 222.34 48.5051C227.419 48.5051 232.061 45.9747 234.119 41.915H234.282V44.5729C234.282 45.556 234.683 46.448 235.32 47.1034C235.975 47.7405 236.867 48.141 237.851 48.141C239.817 48.141 241.4 46.539 241.4 44.5729V22.5451C241.4 15.154 235.52 10.3297 226.418 10.3297ZM234.046 34.1234C234.046 39.0204 229.859 42.5704 224.324 42.5704C220.028 42.5704 217.243 40.5132 217.243 37.3092C217.243 34.0141 219.901 32.1208 224.98 31.8114L234.046 31.1924V34.1234Z" fill="white"/>
<path d="M265.158 10.439C260.752 10.439 257.33 12.9512 256.146 17.1019H256.019V14.3712C256.019 12.4051 254.417 10.8213 252.469 10.8213C250.503 10.8213 248.901 12.4051 248.901 14.3712V44.4091C248.901 45.4286 249.32 46.3752 249.993 47.0488C250.667 47.7224 251.595 48.1411 252.633 48.1411C254.69 48.1411 256.365 46.4662 256.365 44.4091V25.8766C256.365 20.6154 259.46 17.2111 264.375 17.2111C264.575 17.2111 264.794 17.2111 264.994 17.2293C266.523 17.284 267.761 16.0278 267.761 14.4986V13.0605C267.761 11.6223 266.596 10.439 265.158 10.439Z" fill="white"/>
<path d="M204.773 45.2101C204.773 46.2113 204.263 47.1034 203.498 47.6495C203.498 47.6495 203.48 47.6677 203.462 47.6677C202.988 47.9954 202.424 48.1774 201.805 48.1774C200.149 48.1774 198.82 46.8485 198.82 45.2101C198.82 43.5716 200.149 42.2427 201.805 42.2427C201.933 42.2427 202.078 42.2609 202.206 42.2791C203.662 42.4611 204.773 43.7173 204.773 45.2101Z" fill="white"/>
</svg>
